<mxfile host="app.diagrams.net" modified="2023-06-11T09:23:12.792Z" agent="Mozilla/5.0 (Windows NT 10.0; Win64; x64) AppleWebKit/537.36 (KHTML, like Gecko) Chrome/114.0.0.0 Safari/537.36" etag="jXIl77dhu_9csttNMTF7" version="21.3.8" type="github">
  <diagram id="R2lEEEUBdFMjLlhIrx00" name="Page-1">
    <mxGraphModel dx="2026" dy="1629" grid="1" gridSize="10" guides="1" tooltips="1" connect="1" arrows="1" fold="1" page="1" pageScale="1" pageWidth="850" pageHeight="1100" math="0" shadow="0" extFonts="Permanent Marker^https://fonts.googleapis.com/css?family=Permanent+Marker">
      <root>
        <mxCell id="0" />
        <mxCell id="1" parent="0" />
        <mxCell id="BTyGh5rQ3jjTxyu-iNYq-29" value="Customers&amp;nbsp;" style="whiteSpace=wrap;html=1;align=center;" vertex="1" parent="1">
          <mxGeometry x="120" y="170" width="100" height="40" as="geometry" />
        </mxCell>
        <mxCell id="BTyGh5rQ3jjTxyu-iNYq-91" value="customer_id" style="ellipse;whiteSpace=wrap;html=1;align=center;fontStyle=4;" vertex="1" parent="1">
          <mxGeometry x="-50" y="120" width="100" height="40" as="geometry" />
        </mxCell>
        <mxCell id="BTyGh5rQ3jjTxyu-iNYq-92" value="&lt;span style=&quot;border-bottom: 1px dotted&quot;&gt;Attribute&lt;/span&gt;" style="ellipse;whiteSpace=wrap;html=1;align=center;" vertex="1" parent="1">
          <mxGeometry x="-50" y="200" width="100" height="40" as="geometry" />
        </mxCell>
        <mxCell id="BTyGh5rQ3jjTxyu-iNYq-93" value="" style="endArrow=none;html=1;rounded=0;exitX=1;exitY=0.5;exitDx=0;exitDy=0;entryX=0;entryY=0.5;entryDx=0;entryDy=0;" edge="1" parent="1" source="BTyGh5rQ3jjTxyu-iNYq-91" target="BTyGh5rQ3jjTxyu-iNYq-29">
          <mxGeometry relative="1" as="geometry">
            <mxPoint x="80" y="110" as="sourcePoint" />
            <mxPoint x="240" y="110" as="targetPoint" />
          </mxGeometry>
        </mxCell>
        <mxCell id="BTyGh5rQ3jjTxyu-iNYq-95" value="" style="endArrow=none;html=1;rounded=0;exitX=1;exitY=0.5;exitDx=0;exitDy=0;entryX=0;entryY=0.5;entryDx=0;entryDy=0;" edge="1" parent="1" source="BTyGh5rQ3jjTxyu-iNYq-92" target="BTyGh5rQ3jjTxyu-iNYq-29">
          <mxGeometry relative="1" as="geometry">
            <mxPoint x="90" y="210" as="sourcePoint" />
            <mxPoint x="150" y="240" as="targetPoint" />
          </mxGeometry>
        </mxCell>
        <mxCell id="BTyGh5rQ3jjTxyu-iNYq-96" value="Admin" style="whiteSpace=wrap;html=1;align=center;" vertex="1" parent="1">
          <mxGeometry x="370" y="-220" width="100" height="40" as="geometry" />
        </mxCell>
        <mxCell id="BTyGh5rQ3jjTxyu-iNYq-100" value="admin_id" style="ellipse;whiteSpace=wrap;html=1;align=center;fontStyle=4;" vertex="1" parent="1">
          <mxGeometry x="370" y="-300" width="100" height="40" as="geometry" />
        </mxCell>
        <mxCell id="BTyGh5rQ3jjTxyu-iNYq-103" value="Products" style="whiteSpace=wrap;html=1;align=center;" vertex="1" parent="1">
          <mxGeometry x="630" y="200" width="100" height="40" as="geometry" />
        </mxCell>
        <mxCell id="BTyGh5rQ3jjTxyu-iNYq-104" value="product_id" style="ellipse;whiteSpace=wrap;html=1;align=center;fontStyle=4;" vertex="1" parent="1">
          <mxGeometry x="820" y="130" width="100" height="40" as="geometry" />
        </mxCell>
        <mxCell id="BTyGh5rQ3jjTxyu-iNYq-106" value="" style="endArrow=none;html=1;rounded=0;exitX=0.5;exitY=0;exitDx=0;exitDy=0;entryX=0.5;entryY=1;entryDx=0;entryDy=0;" edge="1" parent="1" source="BTyGh5rQ3jjTxyu-iNYq-96" target="BTyGh5rQ3jjTxyu-iNYq-100">
          <mxGeometry relative="1" as="geometry">
            <mxPoint x="490" y="10" as="sourcePoint" />
            <mxPoint x="650" y="10" as="targetPoint" />
          </mxGeometry>
        </mxCell>
        <mxCell id="BTyGh5rQ3jjTxyu-iNYq-107" value="" style="endArrow=none;html=1;rounded=0;exitX=0;exitY=0.5;exitDx=0;exitDy=0;entryX=0.5;entryY=0;entryDx=0;entryDy=0;" edge="1" parent="1" source="BTyGh5rQ3jjTxyu-iNYq-104" target="BTyGh5rQ3jjTxyu-iNYq-103">
          <mxGeometry relative="1" as="geometry">
            <mxPoint x="690" y="130" as="sourcePoint" />
            <mxPoint x="850" y="130" as="targetPoint" />
          </mxGeometry>
        </mxCell>
        <mxCell id="BTyGh5rQ3jjTxyu-iNYq-108" value="Cart" style="whiteSpace=wrap;html=1;align=center;" vertex="1" parent="1">
          <mxGeometry x="120" y="400" width="100" height="40" as="geometry" />
        </mxCell>
        <mxCell id="BTyGh5rQ3jjTxyu-iNYq-109" value="Relationship" style="shape=rhombus;perimeter=rhombusPerimeter;whiteSpace=wrap;html=1;align=center;" vertex="1" parent="1">
          <mxGeometry x="110" y="260" width="120" height="60" as="geometry" />
        </mxCell>
        <mxCell id="BTyGh5rQ3jjTxyu-iNYq-112" value="" style="endArrow=none;html=1;rounded=0;exitX=0.5;exitY=1;exitDx=0;exitDy=0;entryX=0.5;entryY=0;entryDx=0;entryDy=0;" edge="1" parent="1" source="BTyGh5rQ3jjTxyu-iNYq-29" target="BTyGh5rQ3jjTxyu-iNYq-109">
          <mxGeometry relative="1" as="geometry">
            <mxPoint x="260" y="200" as="sourcePoint" />
            <mxPoint x="420" y="200" as="targetPoint" />
          </mxGeometry>
        </mxCell>
        <mxCell id="BTyGh5rQ3jjTxyu-iNYq-113" value="" style="endArrow=none;html=1;rounded=0;exitX=0.5;exitY=1;exitDx=0;exitDy=0;entryX=0.5;entryY=0;entryDx=0;entryDy=0;" edge="1" parent="1" source="BTyGh5rQ3jjTxyu-iNYq-109" target="BTyGh5rQ3jjTxyu-iNYq-108">
          <mxGeometry relative="1" as="geometry">
            <mxPoint x="250" y="300" as="sourcePoint" />
            <mxPoint x="410" y="300" as="targetPoint" />
          </mxGeometry>
        </mxCell>
        <mxCell id="BTyGh5rQ3jjTxyu-iNYq-115" value="Relationship" style="shape=rhombus;perimeter=rhombusPerimeter;whiteSpace=wrap;html=1;align=center;" vertex="1" parent="1">
          <mxGeometry x="620" y="300" width="120" height="60" as="geometry" />
        </mxCell>
        <mxCell id="BTyGh5rQ3jjTxyu-iNYq-116" value="Cart Detail" style="shape=ext;margin=3;double=1;whiteSpace=wrap;html=1;align=center;" vertex="1" parent="1">
          <mxGeometry x="630" y="400" width="100" height="40" as="geometry" />
        </mxCell>
        <mxCell id="BTyGh5rQ3jjTxyu-iNYq-117" value="" style="endArrow=none;html=1;rounded=0;exitX=0.5;exitY=1;exitDx=0;exitDy=0;entryX=0.5;entryY=0;entryDx=0;entryDy=0;" edge="1" parent="1" source="BTyGh5rQ3jjTxyu-iNYq-115" target="BTyGh5rQ3jjTxyu-iNYq-116">
          <mxGeometry relative="1" as="geometry">
            <mxPoint x="630" y="350" as="sourcePoint" />
            <mxPoint x="790" y="350" as="targetPoint" />
          </mxGeometry>
        </mxCell>
        <mxCell id="BTyGh5rQ3jjTxyu-iNYq-121" value="" style="endArrow=none;html=1;rounded=0;exitX=0.5;exitY=1;exitDx=0;exitDy=0;entryX=0.5;entryY=0;entryDx=0;entryDy=0;" edge="1" parent="1" source="BTyGh5rQ3jjTxyu-iNYq-103" target="BTyGh5rQ3jjTxyu-iNYq-115">
          <mxGeometry relative="1" as="geometry">
            <mxPoint x="760" y="250" as="sourcePoint" />
            <mxPoint x="920" y="250" as="targetPoint" />
          </mxGeometry>
        </mxCell>
        <mxCell id="BTyGh5rQ3jjTxyu-iNYq-123" value="Quantity" style="ellipse;whiteSpace=wrap;html=1;align=center;" vertex="1" parent="1">
          <mxGeometry x="820" y="360" width="100" height="40" as="geometry" />
        </mxCell>
        <mxCell id="BTyGh5rQ3jjTxyu-iNYq-124" value="cart_id" style="ellipse;whiteSpace=wrap;html=1;align=center;fontStyle=4;" vertex="1" parent="1">
          <mxGeometry x="-80" y="370" width="100" height="40" as="geometry" />
        </mxCell>
        <mxCell id="BTyGh5rQ3jjTxyu-iNYq-126" value="" style="endArrow=none;html=1;rounded=0;exitX=1;exitY=0.5;exitDx=0;exitDy=0;entryX=0;entryY=0.5;entryDx=0;entryDy=0;" edge="1" parent="1" source="BTyGh5rQ3jjTxyu-iNYq-124" target="BTyGh5rQ3jjTxyu-iNYq-108">
          <mxGeometry relative="1" as="geometry">
            <mxPoint x="80" y="330" as="sourcePoint" />
            <mxPoint x="240" y="330" as="targetPoint" />
          </mxGeometry>
        </mxCell>
        <mxCell id="BTyGh5rQ3jjTxyu-iNYq-128" value="Relationship" style="shape=rhombus;double=1;perimeter=rhombusPerimeter;whiteSpace=wrap;html=1;align=center;" vertex="1" parent="1">
          <mxGeometry x="365" y="390" width="120" height="60" as="geometry" />
        </mxCell>
        <mxCell id="BTyGh5rQ3jjTxyu-iNYq-130" value="" style="endArrow=none;html=1;rounded=0;exitX=1;exitY=0.5;exitDx=0;exitDy=0;entryX=0;entryY=0.5;entryDx=0;entryDy=0;" edge="1" parent="1" source="BTyGh5rQ3jjTxyu-iNYq-116" target="BTyGh5rQ3jjTxyu-iNYq-123">
          <mxGeometry relative="1" as="geometry">
            <mxPoint x="870" y="460" as="sourcePoint" />
            <mxPoint x="1030" y="460" as="targetPoint" />
          </mxGeometry>
        </mxCell>
        <mxCell id="BTyGh5rQ3jjTxyu-iNYq-132" value="" style="endArrow=none;html=1;rounded=0;exitX=1;exitY=0.5;exitDx=0;exitDy=0;entryX=0;entryY=0.5;entryDx=0;entryDy=0;" edge="1" parent="1" source="BTyGh5rQ3jjTxyu-iNYq-108" target="BTyGh5rQ3jjTxyu-iNYq-128">
          <mxGeometry relative="1" as="geometry">
            <mxPoint x="240" y="360" as="sourcePoint" />
            <mxPoint x="400" y="360" as="targetPoint" />
          </mxGeometry>
        </mxCell>
        <mxCell id="BTyGh5rQ3jjTxyu-iNYq-133" value="" style="endArrow=none;html=1;rounded=0;exitX=1;exitY=0.5;exitDx=0;exitDy=0;entryX=0;entryY=0.5;entryDx=0;entryDy=0;" edge="1" parent="1" source="BTyGh5rQ3jjTxyu-iNYq-128" target="BTyGh5rQ3jjTxyu-iNYq-116">
          <mxGeometry relative="1" as="geometry">
            <mxPoint x="520" y="420" as="sourcePoint" />
            <mxPoint x="680" y="420" as="targetPoint" />
          </mxGeometry>
        </mxCell>
        <mxCell id="BTyGh5rQ3jjTxyu-iNYq-134" value="" style="endArrow=none;html=1;rounded=0;exitX=1;exitY=0.5;exitDx=0;exitDy=0;entryX=0;entryY=0.5;entryDx=0;entryDy=0;" edge="1" parent="1" source="BTyGh5rQ3jjTxyu-iNYq-116" target="BTyGh5rQ3jjTxyu-iNYq-135">
          <mxGeometry relative="1" as="geometry">
            <mxPoint x="780" y="470" as="sourcePoint" />
            <mxPoint x="840" y="460" as="targetPoint" />
          </mxGeometry>
        </mxCell>
        <mxCell id="BTyGh5rQ3jjTxyu-iNYq-135" value="Money" style="ellipse;whiteSpace=wrap;html=1;align=center;" vertex="1" parent="1">
          <mxGeometry x="840" y="450" width="100" height="40" as="geometry" />
        </mxCell>
        <mxCell id="BTyGh5rQ3jjTxyu-iNYq-136" value="Orders" style="whiteSpace=wrap;html=1;align=center;" vertex="1" parent="1">
          <mxGeometry x="600" y="-50" width="100" height="40" as="geometry" />
        </mxCell>
        <mxCell id="BTyGh5rQ3jjTxyu-iNYq-137" value="Relationship" style="shape=rhombus;perimeter=rhombusPerimeter;whiteSpace=wrap;html=1;align=center;" vertex="1" parent="1">
          <mxGeometry x="360" y="-140" width="120" height="60" as="geometry" />
        </mxCell>
        <mxCell id="BTyGh5rQ3jjTxyu-iNYq-138" value="" style="endArrow=none;html=1;rounded=0;exitX=0.5;exitY=1;exitDx=0;exitDy=0;entryX=0.5;entryY=0;entryDx=0;entryDy=0;" edge="1" parent="1" source="BTyGh5rQ3jjTxyu-iNYq-96" target="BTyGh5rQ3jjTxyu-iNYq-137">
          <mxGeometry relative="1" as="geometry">
            <mxPoint x="520" y="120" as="sourcePoint" />
            <mxPoint x="680" y="120" as="targetPoint" />
          </mxGeometry>
        </mxCell>
        <mxCell id="BTyGh5rQ3jjTxyu-iNYq-139" value="order_id" style="ellipse;whiteSpace=wrap;html=1;align=center;fontStyle=4;" vertex="1" parent="1">
          <mxGeometry x="600" y="-170" width="100" height="40" as="geometry" />
        </mxCell>
        <mxCell id="BTyGh5rQ3jjTxyu-iNYq-140" value="" style="endArrow=none;html=1;rounded=0;exitX=0.5;exitY=1;exitDx=0;exitDy=0;entryX=0.5;entryY=0;entryDx=0;entryDy=0;" edge="1" parent="1" source="BTyGh5rQ3jjTxyu-iNYq-139" target="BTyGh5rQ3jjTxyu-iNYq-136">
          <mxGeometry relative="1" as="geometry">
            <mxPoint x="760" y="-70" as="sourcePoint" />
            <mxPoint x="920" y="-70" as="targetPoint" />
          </mxGeometry>
        </mxCell>
        <mxCell id="BTyGh5rQ3jjTxyu-iNYq-141" value="total" style="ellipse;whiteSpace=wrap;html=1;align=center;" vertex="1" parent="1">
          <mxGeometry x="750" y="-140" width="100" height="40" as="geometry" />
        </mxCell>
        <mxCell id="BTyGh5rQ3jjTxyu-iNYq-142" value="" style="endArrow=none;html=1;rounded=0;exitX=0.5;exitY=0;exitDx=0;exitDy=0;entryX=0;entryY=0.5;entryDx=0;entryDy=0;" edge="1" parent="1" source="BTyGh5rQ3jjTxyu-iNYq-136" target="BTyGh5rQ3jjTxyu-iNYq-141">
          <mxGeometry relative="1" as="geometry">
            <mxPoint x="750" y="-30" as="sourcePoint" />
            <mxPoint x="910" y="-30" as="targetPoint" />
          </mxGeometry>
        </mxCell>
        <mxCell id="BTyGh5rQ3jjTxyu-iNYq-143" value="address" style="ellipse;whiteSpace=wrap;html=1;align=center;" vertex="1" parent="1">
          <mxGeometry x="760" y="-60" width="100" height="40" as="geometry" />
        </mxCell>
        <mxCell id="BTyGh5rQ3jjTxyu-iNYq-144" value="" style="endArrow=none;html=1;rounded=0;exitX=1;exitY=0.5;exitDx=0;exitDy=0;entryX=0;entryY=0.5;entryDx=0;entryDy=0;" edge="1" parent="1" source="BTyGh5rQ3jjTxyu-iNYq-136" target="BTyGh5rQ3jjTxyu-iNYq-143">
          <mxGeometry relative="1" as="geometry">
            <mxPoint x="680" y="40" as="sourcePoint" />
            <mxPoint x="840" y="40" as="targetPoint" />
          </mxGeometry>
        </mxCell>
        <mxCell id="BTyGh5rQ3jjTxyu-iNYq-145" value="" style="endArrow=none;html=1;rounded=0;exitX=0.5;exitY=1;exitDx=0;exitDy=0;entryX=0;entryY=0.5;entryDx=0;entryDy=0;" edge="1" parent="1" source="BTyGh5rQ3jjTxyu-iNYq-137" target="BTyGh5rQ3jjTxyu-iNYq-136">
          <mxGeometry relative="1" as="geometry">
            <mxPoint x="470" as="sourcePoint" />
            <mxPoint x="490" as="targetPoint" />
            <Array as="points">
              <mxPoint x="420" y="-30" />
            </Array>
          </mxGeometry>
        </mxCell>
        <mxCell id="BTyGh5rQ3jjTxyu-iNYq-146" value="payment_method" style="ellipse;whiteSpace=wrap;html=1;align=center;" vertex="1" parent="1">
          <mxGeometry x="750" y="30" width="140" height="40" as="geometry" />
        </mxCell>
        <mxCell id="BTyGh5rQ3jjTxyu-iNYq-147" value="" style="endArrow=none;html=1;rounded=0;exitX=0.5;exitY=1;exitDx=0;exitDy=0;entryX=0;entryY=0.5;entryDx=0;entryDy=0;" edge="1" parent="1" source="BTyGh5rQ3jjTxyu-iNYq-136" target="BTyGh5rQ3jjTxyu-iNYq-146">
          <mxGeometry relative="1" as="geometry">
            <mxPoint x="470" y="70" as="sourcePoint" />
            <mxPoint x="630" y="70" as="targetPoint" />
          </mxGeometry>
        </mxCell>
        <mxCell id="BTyGh5rQ3jjTxyu-iNYq-148" value="bank_account" style="ellipse;whiteSpace=wrap;html=1;align=center;" vertex="1" parent="1">
          <mxGeometry x="200" y="-280" width="100" height="40" as="geometry" />
        </mxCell>
        <mxCell id="BTyGh5rQ3jjTxyu-iNYq-149" value="" style="endArrow=none;html=1;rounded=0;exitX=1;exitY=1;exitDx=0;exitDy=0;entryX=0;entryY=0.5;entryDx=0;entryDy=0;" edge="1" parent="1" source="BTyGh5rQ3jjTxyu-iNYq-148" target="BTyGh5rQ3jjTxyu-iNYq-96">
          <mxGeometry relative="1" as="geometry">
            <mxPoint x="350" y="-200" as="sourcePoint" />
            <mxPoint x="510" y="-190" as="targetPoint" />
          </mxGeometry>
        </mxCell>
        <mxCell id="BTyGh5rQ3jjTxyu-iNYq-150" value="Relationship" style="shape=rhombus;perimeter=rhombusPerimeter;whiteSpace=wrap;html=1;align=center;" vertex="1" parent="1">
          <mxGeometry x="340" y="80" width="120" height="60" as="geometry" />
        </mxCell>
      </root>
    </mxGraphModel>
  </diagram>
</mxfile>
